<?xml version="1.0" encoding="utf-8"?>
<!-- Generator: Adobe Illustrator 16.0.0, SVG Export Plug-In . SVG Version: 6.00 Build 0)  -->
<!DOCTYPE svg PUBLIC "-//W3C//DTD SVG 1.1//EN" "http://www.w3.org/Graphics/SVG/1.1/DTD/svg11.dtd">
<svg version="1.1" id="Layer_1" xmlns="http://www.w3.org/2000/svg" xmlns:xlink="http://www.w3.org/1999/xlink" x="0px" y="0px"
	 width="223.84px" height="247.68px" viewBox="0 0 223.84 247.68" enable-background="new 0 0 223.84 247.68" xml:space="preserve">
<g id="XMLID_1_">
	<g>
		<g id="XMLID_2_">
			<g>
				<path fill="#F26964" d="M9.38,10.563h0.166c-0.045-0.038-0.09-0.074-0.13-0.117c-1.315-1.188-2.32-3.499-2.32-5.367
					c0-2.641,2.162-4.783,4.208-4.783c2.043,0,4.098,2.284,4.098,4.924c0,1.869-1.108,4.107-2.482,5.256
					c0.282,1.077,1.828,1.431,5.017,2.304c3.544,0.972,4.399,3.447,4.388,5.062H0c-0.012-1.615,0.847-4.091,4.39-5.062
					C7.491,11.929,9.035,11.572,9.38,10.563z"/>
				<path fill="#F26964" d="M9.546,10.563H9.38c0.014-0.038,0.023-0.076,0.036-0.117C9.456,10.49,9.501,10.525,9.546,10.563z"/>
			</g>
		</g>
	</g>
</g>
<path fill="#F26964" d="M97.235,94.557h14.445c1.191,0,2.158,0.965,2.158,2.157v9.35c0,1.19-0.967,2.157-2.158,2.157h-6.315
	c-2.146,2.505-5.537,3.055-5.537,3.055c1.196-1.202,1.293-2.248,1.006-3.055h-3.598c-1.192,0-2.158-0.967-2.158-2.157v-9.35
	C95.078,95.522,96.043,94.557,97.235,94.557z"/>
<path fill="#F26964" d="M57.718,47.453c-4.892-0.004-8.858,4.002-8.863,8.941c0.005,4.945,3.971,8.952,8.863,8.95
	c4.895,0.002,8.86-4.005,8.864-8.95C66.578,51.456,62.611,47.449,57.718,47.453z M61.659,58.641l-1.698,1.697l-2.243-2.241
	l-2.242,2.241l-1.699-1.697L56.02,56.4l-2.243-2.244l1.699-1.7l2.242,2.243l2.243-2.243l1.698,1.7L59.417,56.4L61.659,58.641z"/>
<g>
	<rect id="rect2994-1" x="0.407" y="100.944" fill="#F26964" fill-opacity="0.9947" width="19.157" height="4.257"/>
	<rect id="rect2994" x="0.407" y="94.557" fill="#F26964" fill-opacity="0.9947" width="19.157" height="4.258"/>
	<rect id="rect2994-7" x="0.407" y="107.331" fill="#F26964" fill-opacity="0.9947" width="19.157" height="4.256"/>
</g>
<g>
	<g>
		<polygon fill="#F26964" points="164.443,50.539 150.312,63.714 150.213,63.608 147.436,60.627 143.331,56.227 146.37,53.393 
			150.477,57.793 161.567,47.453 		"/>
	</g>
</g>
<path fill="#F26964" d="M10.753,47.454c-4.871,0-8.82,3.949-8.82,8.82s3.949,8.819,8.82,8.819c4.872,0,8.821-3.949,8.821-8.819
	C19.574,51.403,15.625,47.454,10.753,47.454z M9.386,60.342l-4.058-4.059l1.56-1.559l2.499,2.5l5.302-5.303l1.56,1.56L9.386,60.342z
	"/>
<polygon fill="#F26964" points="108.265,56.135 113.411,61.283 110.106,64.586 104.958,59.439 99.814,64.584 96.509,61.281 
	101.655,56.135 96.509,50.99 99.814,47.686 104.958,52.83 110.104,47.685 113.411,50.989 "/>
<g id="Page_1">
	<g id="Gear_Two">
		<path id="Rectangle_5" fill="#F26964" d="M97.727,11.123h-2.25c-0.332,0-0.601-0.269-0.601-0.601V8.12
			c0-0.333,0.269-0.601,0.601-0.601h2.247c0.13-0.449,0.308-0.878,0.529-1.282l-1.587-1.588c-0.235-0.233-0.235-0.615,0-0.85
			l1.699-1.698c0.234-0.235,0.614-0.235,0.85,0l1.583,1.583c0.405-0.224,0.836-0.402,1.287-0.536V0.912
			c0-0.333,0.269-0.601,0.6-0.601h2.403c0.332,0,0.601,0.27,0.601,0.601v2.23c0.454,0.131,0.886,0.312,1.292,0.534l1.577-1.576
			c0.235-0.235,0.615-0.235,0.85,0l1.699,1.698c0.235,0.234,0.234,0.616,0,0.85l-1.575,1.575c0.224,0.406,0.406,0.84,0.537,1.295
			h2.227c0.332,0,0.601,0.269,0.601,0.601v2.403c0,0.332-0.27,0.601-0.601,0.601h-2.23c-0.131,0.453-0.313,0.886-0.537,1.292
			l1.578,1.578c0.235,0.235,0.234,0.616,0,0.85l-1.699,1.698c-0.234,0.236-0.615,0.236-0.85,0l-1.583-1.581
			c-0.405,0.223-0.836,0.4-1.287,0.531v2.239c0,0.332-0.269,0.601-0.601,0.601h-2.403c-0.332,0-0.601-0.269-0.601-0.601v-2.245
			c-0.449-0.132-0.878-0.312-1.28-0.534l-1.59,1.589c-0.234,0.236-0.614,0.236-0.849,0l-1.699-1.698
			c-0.235-0.234-0.235-0.614,0-0.85l1.591-1.591C98.038,11.999,97.858,11.572,97.727,11.123z M100.293,9.316
			c0,1.991,1.614,3.604,3.604,3.604c1.99,0,3.604-1.612,3.604-3.604c0-1.99-1.613-3.604-3.604-3.604S100.293,7.327,100.293,9.316z"
			/>
	</g>
</g>
<g id="XMLID_13_">
	<g>
		<g id="XMLID_10_">
			<g>
				<path fill="#F26964" d="M63.789,111.444l-4.017-4.019c-1.101,0.722-2.417,1.146-3.835,1.146c-3.872,0-7.003-3.139-7.003-7.011
					c0-3.864,3.13-7.003,7.003-7.003c3.864,0,7.001,3.139,7.001,7.003c0,1.352-0.38,2.611-1.039,3.679l4.045,4.044
					c0.214,0.209,0.034,0.728-0.396,1.156l-0.603,0.603C64.517,111.472,63.996,111.652,63.789,111.444z M60.61,101.56
					c0-2.584-2.091-4.676-4.675-4.676s-4.682,2.092-4.682,4.676s2.098,4.683,4.682,4.683C58.518,106.243,60.61,104.145,60.61,101.56
					z"/>
			</g>
		</g>
	</g>
</g>
<path fill="#F26964" d="M62.592,6.739V4.493C62.592,2.013,60.58,0,58.099,0c-2.48,0-4.493,2.013-4.493,4.493v2.246
	c-1.24,0-2.246,1.007-2.246,2.247v6.739c0,1.239,1.005,2.246,2.246,2.246h8.987c1.24,0,2.246-1.007,2.246-2.246V8.986
	C64.838,7.746,63.833,6.739,62.592,6.739z M55.853,4.493c0-1.24,1.005-2.247,2.246-2.247c1.241,0,2.248,1.007,2.248,2.247v2.246
	h-4.494V4.493z"/>
<path fill="#F26964" d="M160.985,4.809c-0.249-2.446-2.314-4.355-4.826-4.355c-2.013,0-3.738,1.227-4.473,2.972
	c-0.734-1.745-2.46-2.972-4.473-2.972c-2.512,0-4.578,1.909-4.825,4.355c-0.017,0.163-0.025,0.329-0.025,0.496
	c0,5.893,7.232,8.674,9.323,12.604l0,0c2.09-3.931,9.322-6.711,9.322-12.604C161.008,5.137,161,4.971,160.985,4.809z"/>
<polygon fill="#F26964" points="190.997,9.174 199.726,17.901 202.37,15.255 196.29,9.174 202.372,3.092 199.726,0.446 
	193.644,6.527 "/>
<polygon fill="#F26964" points="202.782,53.754 196.482,47.454 193.741,50.194 200.042,56.495 193.743,62.795 196.482,65.536 
	205.523,56.495 "/>
<path fill="#F26964" d="M198.274,94.162c-3.275,0-5.932,2.656-5.932,5.932c0,0.069,0.002,0.143,0.006,0.214
	c0.023,0.623,0.141,1.222,0.34,1.781c1.268,4.159,5.587,9.585,5.587,9.585s4.321-5.426,5.587-9.585
	c0.201-0.561,0.316-1.158,0.338-1.781c0.004-0.071,0.006-0.145,0.006-0.214C204.206,96.818,201.549,94.162,198.274,94.162z
	 M198.274,102.998c-1.604,0-2.904-1.301-2.904-2.904s1.299-2.905,2.904-2.905s2.905,1.302,2.905,2.905
	C201.179,101.698,199.877,102.998,198.274,102.998z"/>
<g>
	<path fill="#F26964" d="M168.223,102.027c0-0.01-0.002-0.021-0.002-0.032c0-0.005,0-0.009,0-0.013
		c-0.002-0.009-0.002-0.019-0.004-0.024c0-0.01-0.002-0.019-0.004-0.024v-0.004c-0.03-0.193-0.121-0.375-0.262-0.515
		c-0.798-0.946-1.746-1.789-2.711-2.557c-2.08-1.655-4.457-3.042-7.082-3.601c-1.517-0.321-3.041-0.336-4.566-0.062
		c-1.387,0.249-2.723,0.765-3.975,1.405c-1.959,1.001-3.746,2.379-5.305,3.926c-0.288,0.285-0.575,0.578-0.836,0.89
		c-0.35,0.414-0.35,0.903,0,1.317c0.797,0.945,1.746,1.787,2.711,2.556c2.079,1.654,4.456,3.042,7.08,3.6
		c1.518,0.32,3.043,0.335,4.568,0.062c1.387-0.249,2.723-0.764,3.974-1.402c1.958-1.004,3.747-2.38,5.306-3.927
		c0.288-0.286,0.574-0.577,0.838-0.889c0.139-0.141,0.23-0.321,0.26-0.517l0.002-0.001c0-0.009,0.002-0.017,0.004-0.023
		c0-0.008,0.002-0.017,0.002-0.023c0-0.006,0-0.011,0-0.016c0-0.01,0.002-0.021,0.002-0.031c0-0.014,0.001-0.03,0.001-0.046
		C168.225,102.058,168.223,102.043,168.223,102.027z M155.719,106.883c-2.657,0-4.811-2.151-4.811-4.811
		c0-2.657,2.153-4.811,4.811-4.811c2.656,0,4.812,2.154,4.812,4.811C160.532,104.731,158.375,106.883,155.719,106.883z"/>
	<path fill="#F26964" d="M155.719,100.482c0.879,0,1.594,0.712,1.594,1.591c0,0.882-0.715,1.593-1.594,1.593
		s-1.594-0.711-1.594-1.593C154.125,101.194,154.838,100.482,155.719,100.482z"/>
</g>
<g id="XMLID_5_">
	<g>
		<g id="XMLID_6_">
			<g>
				<path fill="#FFFFFF" d="M10.504,138.569h0.166c-0.045-0.038-0.09-0.074-0.13-0.117c-1.315-1.188-2.32-3.499-2.32-5.367
					c0-2.641,2.162-4.783,4.208-4.783c2.043,0,4.098,2.284,4.098,4.925c0,1.868-1.108,4.106-2.482,5.255
					c0.282,1.078,1.828,1.431,5.017,2.304c3.544,0.972,4.399,3.447,4.388,5.063H1.125c-0.012-1.616,0.847-4.092,4.39-5.063
					C8.616,139.935,10.16,139.578,10.504,138.569z"/>
				<path fill="#FFFFFF" d="M10.67,138.569h-0.166c0.014-0.038,0.023-0.076,0.036-0.117
					C10.581,138.496,10.625,138.531,10.67,138.569z"/>
			</g>
		</g>
	</g>
</g>
<path fill="#FFFFFF" d="M98.359,222.563h14.446c1.191,0,2.156,0.965,2.156,2.158v9.349c0,1.19-0.965,2.157-2.156,2.157h-6.316
	c-2.146,2.505-5.537,3.055-5.537,3.055c1.196-1.202,1.293-2.248,1.006-3.055H98.36c-1.192,0-2.158-0.967-2.158-2.157v-9.349
	C96.203,223.528,97.167,222.563,98.359,222.563z"/>
<path fill="#FFFFFF" d="M58.842,175.459c-4.892-0.004-8.858,4.002-8.863,8.941c0.005,4.946,3.971,8.952,8.863,8.951
	c4.895,0.001,8.86-4.005,8.864-8.951C67.702,179.461,63.736,175.455,58.842,175.459z M62.783,186.647l-1.698,1.698l-2.243-2.242
	l-2.242,2.242l-1.699-1.698l2.243-2.241l-2.243-2.244l1.699-1.7l2.242,2.243l2.243-2.243l1.698,1.7l-2.241,2.244L62.783,186.647z"/>
<g>
	<rect id="rect2994-1_1_" x="1.532" y="228.95" fill="#FFFFFF" fill-opacity="0.9947" width="19.157" height="4.257"/>
	<rect id="rect2994_1_" x="1.532" y="222.563" fill="#FFFFFF" fill-opacity="0.9947" width="19.157" height="4.258"/>
	<rect id="rect2994-7_1_" x="1.532" y="235.336" fill="#FFFFFF" fill-opacity="0.9947" width="19.157" height="4.256"/>
</g>
<g>
	<g>
		<polygon fill="#FFFFFF" points="165.568,178.545 151.437,191.72 151.338,191.614 148.56,188.633 144.456,184.233 147.495,181.399 
			151.601,185.799 162.692,175.459 		"/>
	</g>
</g>
<path fill="#FFFFFF" d="M11.878,175.459c-4.871,0-8.82,3.949-8.82,8.82s3.949,8.82,8.82,8.82c4.872,0,8.821-3.95,8.821-8.82
	S16.75,175.459,11.878,175.459z M10.51,188.348l-4.058-4.06l1.56-1.559l2.499,2.5l5.302-5.303l1.56,1.56L10.51,188.348z"/>
<polygon fill="#FFFFFF" points="109.389,184.142 114.536,189.289 111.231,192.592 106.083,187.445 100.939,192.59 97.634,189.287 
	102.78,184.141 97.634,178.996 100.939,175.691 106.083,180.836 111.229,175.69 114.536,178.995 "/>
<g id="Page_1_1_">
	<g id="Gear_Two_1_">
		<path id="Rectangle_5_1_" fill="#FFFFFF" d="M98.851,139.129h-2.25c-0.332,0-0.601-0.269-0.601-0.601v-2.403
			c0-0.333,0.269-0.601,0.601-0.601h2.247c0.13-0.449,0.308-0.878,0.529-1.282l-1.587-1.588c-0.235-0.233-0.235-0.615,0-0.849
			l1.699-1.699c0.234-0.235,0.614-0.235,0.85,0l1.583,1.583c0.405-0.224,0.836-0.402,1.287-0.536v-2.237
			c0-0.333,0.269-0.601,0.6-0.601h2.402c0.332,0,0.602,0.27,0.602,0.601v2.23c0.454,0.131,0.887,0.312,1.293,0.535l1.576-1.577
			c0.235-0.235,0.615-0.235,0.851,0l1.699,1.699c0.235,0.233,0.233,0.615,0,0.849l-1.575,1.575c0.224,0.406,0.406,0.84,0.537,1.295
			h2.227c0.332,0,0.603,0.269,0.603,0.601v2.403c0,0.332-0.271,0.601-0.603,0.601h-2.229c-0.132,0.453-0.313,0.887-0.537,1.292
			l1.578,1.578c0.234,0.235,0.232,0.616,0,0.851l-1.699,1.697c-0.234,0.236-0.615,0.236-0.851,0l-1.582-1.581
			c-0.404,0.223-0.836,0.4-1.287,0.531v2.239c0,0.332-0.27,0.601-0.602,0.601h-2.402c-0.332,0-0.601-0.269-0.601-0.601v-2.245
			c-0.449-0.132-0.878-0.312-1.28-0.534l-1.59,1.589c-0.234,0.236-0.614,0.236-0.849,0l-1.699-1.697
			c-0.235-0.235-0.235-0.615,0-0.851l1.591-1.591C99.162,140.005,98.982,139.578,98.851,139.129z M101.417,137.322
			c0,1.991,1.614,3.604,3.604,3.604s3.604-1.612,3.604-3.604c0-1.99-1.613-3.604-3.604-3.604S101.417,135.333,101.417,137.322z"/>
	</g>
</g>
<g id="XMLID_3_">
	<g>
		<g id="XMLID_4_">
			<g>
				<path fill="#FFFFFF" d="M64.913,239.45l-4.017-4.018c-1.101,0.721-2.417,1.145-3.835,1.145c-3.872,0-7.003-3.139-7.003-7.011
					c0-3.864,3.13-7.003,7.003-7.003c3.864,0,7.001,3.139,7.001,7.003c0,1.352-0.38,2.611-1.039,3.679l4.045,4.044
					c0.214,0.209,0.034,0.729-0.396,1.156l-0.603,0.603C65.641,239.478,65.12,239.658,64.913,239.45z M61.734,229.566
					c0-2.584-2.091-4.675-4.675-4.675s-4.682,2.091-4.682,4.675s2.098,4.683,4.682,4.683S61.734,232.151,61.734,229.566z"/>
			</g>
		</g>
	</g>
</g>
<path fill="#FFFFFF" d="M63.717,134.745v-2.246c0-2.479-2.013-4.493-4.494-4.493c-2.48,0-4.493,2.013-4.493,4.493v2.246
	c-1.24,0-2.246,1.007-2.246,2.247v6.739c0,1.24,1.005,2.246,2.246,2.246h8.987c1.24,0,2.246-1.006,2.246-2.246v-6.739
	C65.962,135.752,64.957,134.745,63.717,134.745z M56.978,132.499c0-1.24,1.005-2.247,2.246-2.247c1.241,0,2.248,1.007,2.248,2.247
	v2.246h-4.494V132.499z"/>
<path fill="#FFFFFF" d="M162.11,132.814c-0.249-2.446-2.314-4.355-4.826-4.355c-2.014,0-3.738,1.227-4.473,2.973
	c-0.734-1.746-2.46-2.973-4.473-2.973c-2.512,0-4.578,1.909-4.825,4.355c-0.017,0.163-0.025,0.329-0.025,0.496
	c0,5.893,7.231,8.674,9.323,12.604l0,0c2.09-3.931,9.322-6.711,9.322-12.604C162.133,133.143,162.125,132.977,162.11,132.814z"/>
<polygon fill="#FFFFFF" points="192.122,137.18 200.85,145.907 203.495,143.26 197.415,137.18 203.497,131.098 200.85,128.452 
	194.768,134.533 "/>
<polygon fill="#FFFFFF" points="203.907,181.76 197.607,175.459 194.866,178.2 201.167,184.5 194.868,190.801 197.607,193.542 
	206.648,184.5 "/>
<path fill="#FFFFFF" d="M199.399,222.167c-3.275,0-5.932,2.656-5.932,5.933c0,0.068,0.002,0.142,0.006,0.213
	c0.023,0.623,0.141,1.222,0.34,1.781c1.268,4.159,5.587,9.586,5.587,9.586s4.321-5.427,5.587-9.586
	c0.201-0.561,0.316-1.158,0.338-1.781c0.004-0.071,0.006-0.145,0.006-0.213C205.331,224.824,202.674,222.167,199.399,222.167z
	 M199.399,231.003c-1.604,0-2.904-1.301-2.904-2.903c0-1.604,1.299-2.906,2.904-2.906s2.905,1.302,2.905,2.906
	C202.303,229.704,201.002,231.003,199.399,231.003z"/>
<g>
	<path fill="#FFFFFF" d="M169.347,230.033c0-0.01-0.002-0.021-0.002-0.032c0-0.005,0-0.009,0-0.013
		c-0.003-0.009-0.003-0.018-0.005-0.024c0-0.01,0-0.019-0.002-0.024v-0.004c-0.031-0.193-0.123-0.375-0.262-0.515
		c-0.799-0.945-1.746-1.789-2.713-2.557c-2.078-1.655-4.455-3.042-7.08-3.6c-1.518-0.322-3.041-0.337-4.566-0.063
		c-1.387,0.249-2.723,0.765-3.975,1.405c-1.957,1.001-3.746,2.379-5.305,3.926c-0.288,0.285-0.575,0.578-0.837,0.89
		c-0.349,0.414-0.349,0.903,0,1.317c0.797,0.945,1.746,1.787,2.711,2.556c2.08,1.654,4.457,3.042,7.08,3.6
		c1.519,0.32,3.043,0.335,4.567,0.062c1.388-0.249,2.724-0.764,3.976-1.401c1.958-1.005,3.746-2.381,5.306-3.928
		c0.288-0.286,0.573-0.577,0.838-0.889c0.139-0.14,0.229-0.321,0.26-0.516l0.002-0.001c0-0.01,0.002-0.018,0.004-0.024
		c0-0.008,0.003-0.016,0.003-0.023c0-0.006,0-0.011,0.001-0.016c0-0.01,0.002-0.021,0.002-0.031c0-0.014,0.001-0.029,0.001-0.046
		C169.349,230.064,169.347,230.049,169.347,230.033z M156.842,234.889c-2.656,0-4.811-2.152-4.811-4.812
		c0-2.657,2.153-4.811,4.811-4.811c2.658,0,4.814,2.154,4.814,4.811C161.655,232.737,159.5,234.889,156.842,234.889z"/>
	<path fill="#FFFFFF" d="M156.842,228.488c0.88,0,1.595,0.712,1.595,1.591c0,0.882-0.715,1.593-1.595,1.593
		c-0.879,0-1.592-0.711-1.592-1.593C155.25,229.2,155.963,228.488,156.842,228.488z"/>
</g>
</svg>
