<?xml version="1.0" encoding="utf-8"?>
<!-- Generator: Adobe Illustrator 16.0.0, SVG Export Plug-In . SVG Version: 6.00 Build 0)  -->
<!DOCTYPE svg PUBLIC "-//W3C//DTD SVG 1.1//EN" "http://www.w3.org/Graphics/SVG/1.1/DTD/svg11.dtd">
<svg version="1.1" id="Layer_1" xmlns="http://www.w3.org/2000/svg" xmlns:xlink="http://www.w3.org/1999/xlink" x="0px" y="0px"
	 width="324.584px" height="289.186px" viewBox="0 0 324.584 289.186" enable-background="new 0 0 324.584 289.186"
	 xml:space="preserve">
<ellipse fill="#E7BD60" cx="81.87" cy="255.745" rx="74.023" ry="4.624"/>
<polygon fill="#FFFFFF" stroke="#000000" stroke-width="6" stroke-miterlimit="10" points="3.659,53.783 160.75,53.783 
	157.29,39.816 6.449,39.816 "/>
<polygon fill="#00ACED" points="12.037,53.783 151.705,53.783 129.357,254.204 34.382,254.204 "/>
<rect x="58.968" y="53.783" fill="#FFFFFF" stroke="#000000" stroke-width="6" stroke-miterlimit="10" width="45.804" height="200.421"/>
<ellipse fill="#00ACED" stroke="#000000" stroke-width="6" stroke-miterlimit="10" cx="81.87" cy="147.011" rx="45.803" ry="26.899"/>
<g>
	<path fill="#FFFFFF" d="M52.527,154.221L53.5,152.5c0.166-0.27,0.56-0.227,0.705-0.125c0.083,0.043,1.575,1.142,2.941,1.142
		c0.83,0,1.431-0.52,1.431-1.243c0-0.87-0.726-1.534-2.135-2.093c-1.782-0.704-4.019-2.094-4.019-4.58
		c0-2.05,1.595-4.123,4.785-4.123c2.155,0,3.812,1.099,4.434,1.554c0.249,0.146,0.208,0.52,0.125,0.664l-1.057,1.595
		c-0.146,0.228-0.518,0.414-0.704,0.27c-0.187-0.104-1.699-1.243-2.963-1.243c-0.746,0-1.306,0.497-1.306,1.057
		c0,0.767,0.621,1.348,2.258,2.01c1.616,0.643,4.186,1.907,4.186,4.725c0,2.133-1.844,4.288-4.89,4.288
		c-2.693,0-4.186-1.118-4.662-1.596C52.424,154.593,52.361,154.51,52.527,154.221z"/>
	<path fill="#FFFFFF" d="M72.13,141.478c4.144,0,7.459,3.336,7.459,7.479s-3.315,7.438-7.459,7.438
		c-4.145,0-7.439-3.295-7.439-7.438S67.986,141.478,72.13,141.478z M72.13,153.081c2.278,0,4.144-1.864,4.144-4.124
		c0-2.278-1.865-4.163-4.144-4.163c-2.259,0-4.124,1.885-4.124,4.163C68.006,151.217,69.872,153.081,72.13,153.081z"/>
	<path fill="#FFFFFF" d="M83.133,142.078c0-0.206,0.166-0.393,0.373-0.393h5.057c3.998,0,7.271,3.253,7.271,7.23
		c0,4.02-3.273,7.272-7.271,7.272h-5.057c-0.207,0-0.373-0.188-0.373-0.394V142.078z M88.355,153.122c2.342,0,4.04-1.844,4.04-4.206
		c0-2.342-1.698-4.186-4.04-4.186h-1.988v8.392H88.355z"/>
	<path fill="#FFFFFF" d="M97.392,155.649l6.484-13.944c0.063-0.123,0.208-0.228,0.353-0.228h0.208c0.145,0,0.29,0.104,0.352,0.228
		l6.486,13.944c0.123,0.27-0.043,0.539-0.353,0.539h-2.3c-0.373,0-0.539-0.124-0.726-0.519l-0.747-1.636h-5.635l-0.747,1.657
		c-0.102,0.248-0.331,0.497-0.745,0.497h-2.278C97.433,156.188,97.267,155.919,97.392,155.649z M105.907,151.217l-1.574-3.419
		h-0.021l-1.554,3.419H105.907z"/>
</g>
<polyline fill="none" stroke="#000000" stroke-width="6" stroke-miterlimit="10" points="153.679,53.783 12.037,53.783 
	34.382,254.204 129.357,254.204 151.705,53.783 "/>
<ellipse fill="#E7BD60" cx="241.87" cy="253.745" rx="74.023" ry="4.624"/>
<polygon fill="#FFFFFF" stroke="#000000" stroke-width="6" stroke-miterlimit="10" points="163.659,51.783 320.75,51.783 
	317.29,37.816 166.449,37.816 "/>
<polygon fill="#63B47A" points="172.037,51.783 311.705,51.783 289.357,252.204 194.382,252.204 "/>
<rect x="218.968" y="51.783" fill="#FFFFFF" stroke="#000000" stroke-width="6" stroke-miterlimit="10" width="45.804" height="200.421"/>
<ellipse fill="#63B47A" stroke="#000000" stroke-width="6" stroke-miterlimit="10" cx="241.87" cy="145.011" rx="45.803" ry="26.899"/>
<g>
	<path fill="#FFFFFF" d="M212.527,152.221l0.974-1.721c0.166-0.27,0.56-0.227,0.705-0.125c0.083,0.043,1.575,1.142,2.941,1.142
		c0.83,0,1.431-0.52,1.431-1.243c0-0.87-0.726-1.534-2.135-2.093c-1.782-0.704-4.019-2.094-4.019-4.58
		c0-2.05,1.595-4.123,4.785-4.123c2.155,0,3.812,1.099,4.434,1.554c0.249,0.146,0.208,0.52,0.125,0.664l-1.057,1.595
		c-0.146,0.228-0.518,0.414-0.704,0.27c-0.187-0.104-1.699-1.243-2.963-1.243c-0.746,0-1.306,0.497-1.306,1.057
		c0,0.767,0.621,1.348,2.258,2.01c1.616,0.643,4.186,1.907,4.186,4.725c0,2.133-1.844,4.288-4.89,4.288
		c-2.693,0-4.186-1.118-4.662-1.596C212.424,152.593,212.361,152.51,212.527,152.221z"/>
	<path fill="#FFFFFF" d="M232.13,139.478c4.144,0,7.459,3.336,7.459,7.479s-3.315,7.438-7.459,7.438
		c-4.145,0-7.439-3.295-7.439-7.438S227.986,139.478,232.13,139.478z M232.13,151.081c2.278,0,4.144-1.864,4.144-4.124
		c0-2.278-1.865-4.163-4.144-4.163c-2.259,0-4.124,1.885-4.124,4.163C228.006,149.217,229.872,151.081,232.13,151.081z"/>
	<path fill="#FFFFFF" d="M243.133,140.078c0-0.206,0.166-0.393,0.373-0.393h5.057c3.998,0,7.271,3.253,7.271,7.23
		c0,4.02-3.273,7.272-7.271,7.272h-5.057c-0.207,0-0.373-0.188-0.373-0.394V140.078z M248.355,151.122
		c2.342,0,4.04-1.844,4.04-4.206c0-2.342-1.698-4.186-4.04-4.186h-1.988v8.392H248.355z"/>
	<path fill="#FFFFFF" d="M257.392,153.649l6.484-13.944c0.063-0.123,0.208-0.228,0.353-0.228h0.208c0.145,0,0.29,0.104,0.352,0.228
		l6.486,13.944c0.123,0.27-0.043,0.539-0.353,0.539h-2.3c-0.373,0-0.539-0.124-0.726-0.519l-0.747-1.636h-5.635l-0.747,1.657
		c-0.102,0.248-0.331,0.497-0.745,0.497h-2.278C257.433,154.188,257.267,153.919,257.392,153.649z M265.907,149.217l-1.574-3.419
		h-0.021l-1.554,3.419H265.907z"/>
</g>
<polyline fill="none" stroke="#000000" stroke-width="6" stroke-miterlimit="10" points="313.679,51.783 172.037,51.783 
	194.382,252.204 289.357,252.204 311.705,51.783 "/>
<g>
	<ellipse fill="#E7BD60" cx="161.771" cy="283.186" rx="96.051" ry="6"/>
	<polygon fill="#FFFFFF" stroke="#000000" stroke-width="6" stroke-miterlimit="10" points="60.284,21.123 264.125,21.123 
		259.634,3 63.905,3 	"/>
	<polygon fill="#F16964" points="71.155,21.123 252.386,21.123 223.388,281.186 100.151,281.186 	"/>
	
		<rect x="132.053" y="21.123" fill="#FFFFFF" stroke="#000000" stroke-width="6" stroke-miterlimit="10" width="59.435" height="260.062"/>
	
		<ellipse fill="#F16964" stroke="#000000" stroke-width="6" stroke-miterlimit="10" cx="161.771" cy="142.094" rx="59.434" ry="34.904"/>
	<g>
		<path fill="#FFFFFF" d="M123.695,151.449l1.264-2.232c0.215-0.35,0.726-0.295,0.914-0.162c0.107,0.055,2.044,1.48,3.817,1.48
			c1.076,0,1.855-0.674,1.855-1.613c0-1.129-0.941-1.99-2.77-2.715c-2.312-0.914-5.215-2.717-5.215-5.943
			c0-2.66,2.069-5.35,6.21-5.35c2.796,0,4.947,1.426,5.753,2.016c0.323,0.189,0.27,0.674,0.162,0.861l-1.371,2.07
			c-0.188,0.295-0.672,0.537-0.914,0.35c-0.242-0.135-2.205-1.613-3.845-1.613c-0.968,0-1.694,0.645-1.694,1.371
			c0,0.994,0.807,1.748,2.931,2.607c2.097,0.834,5.431,2.475,5.431,6.131c0,2.768-2.393,5.564-6.345,5.564
			c-3.495,0-5.431-1.451-6.05-2.07C123.562,151.932,123.479,151.824,123.695,151.449z"/>
		<path fill="#FFFFFF" d="M149.132,134.914c5.377,0,9.679,4.328,9.679,9.705s-4.302,9.652-9.679,9.652s-9.652-4.275-9.652-9.652
			S143.755,134.914,149.132,134.914z M149.132,149.971c2.957,0,5.377-2.42,5.377-5.352c0-2.957-2.42-5.402-5.377-5.402
			c-2.931,0-5.351,2.445-5.351,5.402C143.781,147.551,146.201,149.971,149.132,149.971z"/>
		<path fill="#FFFFFF" d="M163.41,135.693c0-0.268,0.215-0.51,0.484-0.51h6.561c5.188,0,9.436,4.221,9.436,9.383
			c0,5.215-4.248,9.436-9.436,9.436h-6.561c-0.27,0-0.484-0.242-0.484-0.51V135.693z M170.185,150.023
			c3.039,0,5.242-2.393,5.242-5.457c0-3.039-2.203-5.432-5.242-5.432h-2.58v10.889H170.185z"/>
		<path fill="#FFFFFF" d="M181.912,153.303l8.414-18.094c0.082-0.16,0.27-0.295,0.457-0.295h0.27c0.188,0,0.377,0.135,0.457,0.295
			l8.416,18.094c0.16,0.35-0.055,0.699-0.457,0.699h-2.984c-0.484,0-0.699-0.16-0.941-0.672l-0.969-2.123h-7.312l-0.969,2.15
			c-0.133,0.322-0.43,0.645-0.967,0.645h-2.957C181.964,154.002,181.75,153.652,181.912,153.303z M192.96,147.551l-2.043-4.436
			h-0.027l-2.016,4.436H192.96z"/>
	</g>
	<polyline fill="none" stroke="#000000" stroke-width="6" stroke-miterlimit="10" points="254.949,21.123 71.155,21.123 
		100.151,281.186 223.388,281.186 252.386,21.123 	"/>
</g>
</svg>
