<?xml version="1.0" encoding="utf-8"?>
<!-- Generator: Adobe Illustrator 16.0.0, SVG Export Plug-In . SVG Version: 6.00 Build 0)  -->
<!DOCTYPE svg PUBLIC "-//W3C//DTD SVG 1.1//EN" "http://www.w3.org/Graphics/SVG/1.1/DTD/svg11.dtd">
<svg version="1.1" id="Layer_1" xmlns="http://www.w3.org/2000/svg" xmlns:xlink="http://www.w3.org/1999/xlink" x="0px" y="0px"
	 width="331.867px" height="331.867px" viewBox="0 0 331.867 331.867" enable-background="new 0 0 331.867 331.867"
	 xml:space="preserve">
<circle fill="#FFFFFF" cx="165.934" cy="165.934" r="165.934"/>
<g>
	<polygon fill="#FFFFFF" stroke="#000000" stroke-width="6" stroke-miterlimit="10" points="41.443,96.593 164.791,96.593 
		162.074,85.625 43.634,85.625 	"/>
	<polygon fill="#00ACED" points="48.022,96.593 157.689,96.593 140.142,253.963 65.567,253.963 	"/>
	
		<rect x="84.872" y="96.593" fill="#FFFFFF" stroke="#000000" stroke-width="6" stroke-miterlimit="10" width="35.965" height="157.37"/>
	
		<ellipse fill="#00ACED" stroke="#000000" stroke-width="6" stroke-miterlimit="10" cx="102.855" cy="169.795" rx="35.964" ry="21.122"/>
	<g>
		<path fill="#FFFFFF" d="M79.814,175.457l0.764-1.352c0.13-0.213,0.44-0.179,0.554-0.098c0.065,0.033,1.236,0.896,2.309,0.896
			c0.652,0,1.124-0.408,1.124-0.976c0-0.684-0.57-1.204-1.677-1.644c-1.399-0.553-3.156-1.644-3.156-3.596
			c0-1.61,1.252-3.238,3.757-3.238c1.692,0,2.993,0.864,3.481,1.222c0.196,0.113,0.164,0.407,0.098,0.521l-0.83,1.253
			c-0.114,0.179-0.407,0.325-0.553,0.211c-0.147-0.081-1.334-0.976-2.327-0.976c-0.585,0-1.025,0.39-1.025,0.83
			c0,0.603,0.488,1.059,1.773,1.578c1.269,0.505,3.287,1.498,3.287,3.71c0,1.675-1.448,3.366-3.84,3.366
			c-2.114,0-3.287-0.877-3.661-1.253C79.733,175.748,79.684,175.684,79.814,175.457z"/>
		<path fill="#FFFFFF" d="M95.207,165.45c3.254,0,5.856,2.62,5.856,5.873s-2.603,5.84-5.856,5.84c-3.255,0-5.841-2.587-5.841-5.84
			S91.953,165.45,95.207,165.45z M95.207,174.561c1.789,0,3.254-1.463,3.254-3.237c0-1.789-1.464-3.269-3.254-3.269
			c-1.774,0-3.238,1.479-3.238,3.269C91.969,173.098,93.434,174.561,95.207,174.561z"/>
		<path fill="#FFFFFF" d="M103.846,165.922c0-0.161,0.13-0.309,0.293-0.309h3.971c3.139,0,5.709,2.554,5.709,5.678
			c0,3.155-2.57,5.708-5.709,5.708h-3.971c-0.163,0-0.293-0.146-0.293-0.308V165.922z M107.947,174.593
			c1.839,0,3.172-1.447,3.172-3.302c0-1.839-1.333-3.287-3.172-3.287h-1.561v6.589H107.947z"/>
		<path fill="#FFFFFF" d="M115.043,176.578l5.091-10.949c0.05-0.097,0.164-0.179,0.277-0.179h0.163c0.114,0,0.228,0.082,0.276,0.179
			l5.093,10.949c0.097,0.211-0.034,0.423-0.277,0.423h-1.806c-0.293,0-0.423-0.099-0.57-0.408l-0.587-1.283h-4.424l-0.586,1.3
			c-0.08,0.195-0.26,0.39-0.585,0.39h-1.789C115.075,177.001,114.944,176.789,115.043,176.578z M121.729,173.098l-1.236-2.685
			h-0.017l-1.22,2.685H121.729z"/>
	</g>
	<polyline fill="none" stroke="#000000" stroke-width="6" stroke-miterlimit="10" points="159.239,96.593 48.022,96.593 
		65.567,253.963 140.142,253.963 157.689,96.593 	"/>
	<polygon fill="#FFFFFF" stroke="#000000" stroke-width="6" stroke-miterlimit="10" points="167.076,95.022 290.424,95.022 
		287.706,84.055 169.266,84.055 	"/>
	<polygon fill="#63B47A" points="173.653,95.022 283.321,95.022 265.772,252.393 191.198,252.393 	"/>
	
		<rect x="210.504" y="95.022" fill="#FFFFFF" stroke="#000000" stroke-width="6" stroke-miterlimit="10" width="35.966" height="157.37"/>
	
		<ellipse fill="#63B47A" stroke="#000000" stroke-width="6" stroke-miterlimit="10" cx="228.486" cy="168.225" rx="35.965" ry="21.122"/>
	<g>
		<path fill="#FFFFFF" d="M205.446,173.886l0.765-1.351c0.131-0.213,0.44-0.179,0.554-0.099c0.066,0.034,1.236,0.896,2.31,0.896
			c0.651,0,1.124-0.407,1.124-0.976c0-0.684-0.57-1.204-1.678-1.644c-1.398-0.553-3.154-1.644-3.154-3.597
			c0-1.609,1.251-3.237,3.757-3.237c1.692,0,2.992,0.864,3.481,1.221c0.195,0.114,0.163,0.408,0.099,0.521l-0.83,1.253
			c-0.115,0.178-0.408,0.324-0.554,0.211c-0.147-0.081-1.334-0.976-2.326-0.976c-0.586,0-1.026,0.39-1.026,0.83
			c0,0.603,0.488,1.059,1.774,1.578c1.269,0.505,3.287,1.498,3.287,3.71c0,1.676-1.448,3.366-3.841,3.366
			c-2.114,0-3.286-0.877-3.66-1.253C205.366,174.178,205.315,174.113,205.446,173.886z"/>
		<path fill="#FFFFFF" d="M220.839,163.88c3.254,0,5.856,2.62,5.856,5.873s-2.603,5.84-5.856,5.84c-3.255,0-5.842-2.587-5.842-5.84
			S217.584,163.88,220.839,163.88z M220.839,172.991c1.789,0,3.254-1.464,3.254-3.238c0-1.789-1.465-3.269-3.254-3.269
			c-1.773,0-3.237,1.479-3.237,3.269C217.602,171.527,219.065,172.991,220.839,172.991z"/>
		<path fill="#FFFFFF" d="M229.479,164.352c0-0.161,0.131-0.309,0.293-0.309h3.971c3.14,0,5.71,2.554,5.71,5.677
			c0,3.156-2.57,5.709-5.71,5.709h-3.971c-0.162,0-0.293-0.147-0.293-0.308V164.352z M233.578,173.023
			c1.839,0,3.173-1.448,3.173-3.303c0-1.839-1.334-3.287-3.173-3.287h-1.56v6.59H233.578z"/>
		<path fill="#FFFFFF" d="M240.674,175.007l5.092-10.948c0.049-0.097,0.164-0.179,0.277-0.179h0.163
			c0.114,0,0.229,0.082,0.277,0.179l5.092,10.948c0.097,0.212-0.034,0.424-0.276,0.424h-1.807c-0.293,0-0.423-0.099-0.57-0.408
			l-0.586-1.283h-4.425l-0.587,1.3c-0.08,0.195-0.26,0.39-0.584,0.39h-1.789C240.706,175.431,240.576,175.219,240.674,175.007z
			 M247.36,171.527l-1.236-2.685h-0.017l-1.219,2.685H247.36z"/>
	</g>
	<polyline fill="none" stroke="#000000" stroke-width="6" stroke-miterlimit="10" points="284.871,95.022 173.653,95.022 
		191.198,252.393 265.772,252.393 283.321,95.022 	"/>
	<polygon fill="#FFFFFF" stroke="#000000" stroke-width="6" stroke-miterlimit="10" points="85.906,70.948 245.962,70.948 
		242.435,56.718 88.749,56.718 	"/>
	<polygon fill="#F16964" points="94.441,70.948 236.743,70.948 213.975,275.149 117.209,275.149 	"/>
	
		<rect x="142.259" y="70.948" fill="#FFFFFF" stroke="#000000" stroke-width="6" stroke-miterlimit="10" width="46.667" height="204.199"/>
	
		<ellipse fill="#F16964" stroke="#000000" stroke-width="6" stroke-miterlimit="10" cx="165.593" cy="165.935" rx="46.668" ry="27.407"/>
	<g>
		<path fill="#FFFFFF" d="M135.695,173.28l0.993-1.753c0.169-0.274,0.57-0.231,0.718-0.127c0.084,0.043,1.604,1.162,2.997,1.162
			c0.845,0,1.456-0.529,1.456-1.267c0-0.887-0.738-1.562-2.175-2.132c-1.815-0.718-4.095-2.133-4.095-4.667
			c0-2.088,1.624-4.2,4.876-4.2c2.195,0,3.885,1.119,4.518,1.583c0.254,0.148,0.212,0.529,0.127,0.676l-1.076,1.625
			c-0.148,0.232-0.528,0.422-0.718,0.275c-0.19-0.105-1.731-1.267-3.02-1.267c-0.76,0-1.33,0.507-1.33,1.076
			c0,0.781,0.634,1.373,2.302,2.048c1.646,0.654,4.265,1.942,4.265,4.813c0,2.174-1.879,4.368-4.982,4.368
			c-2.744,0-4.265-1.14-4.75-1.624C135.592,173.659,135.526,173.575,135.695,173.28z"/>
		<path fill="#FFFFFF" d="M155.669,160.297c4.222,0,7.6,3.398,7.6,7.62c0,4.223-3.378,7.578-7.6,7.578s-7.579-3.355-7.579-7.578
			C148.09,163.695,151.447,160.297,155.669,160.297z M155.669,172.119c2.321,0,4.222-1.899,4.222-4.202
			c0-2.321-1.9-4.241-4.222-4.241c-2.302,0-4.201,1.92-4.201,4.241C151.468,170.22,153.367,172.119,155.669,172.119z"/>
		<path fill="#FFFFFF" d="M166.88,160.908c0-0.21,0.169-0.4,0.38-0.4h5.151c4.075,0,7.41,3.314,7.41,7.367
			c0,4.096-3.335,7.41-7.41,7.41h-5.151c-0.211,0-0.38-0.19-0.38-0.4V160.908z M172.2,172.16c2.386,0,4.116-1.879,4.116-4.285
			c0-2.386-1.73-4.265-4.116-4.265h-2.026v8.55H172.2L172.2,172.16z"/>
		<path fill="#FFFFFF" d="M181.407,174.735l6.607-14.207c0.064-0.126,0.213-0.231,0.358-0.231h0.213
			c0.147,0,0.296,0.105,0.358,0.231l6.608,14.207c0.126,0.275-0.043,0.55-0.359,0.55h-2.343c-0.381,0-0.549-0.126-0.739-0.528
			l-0.761-1.667h-5.741l-0.761,1.688c-0.104,0.253-0.337,0.508-0.759,0.508h-2.322C181.449,175.285,181.28,175.009,181.407,174.735z
			 M190.082,170.22l-1.604-3.483h-0.021l-1.582,3.483H190.082z"/>
	</g>
	<polyline fill="none" stroke="#000000" stroke-width="6" stroke-miterlimit="10" points="238.757,70.948 94.441,70.948 
		117.209,275.149 213.975,275.149 236.743,70.948 	"/>
</g>
</svg>
